<svg xmlns="http://www.w3.org/2000/svg" viewBox="0 0 430 932">
  <defs>
    <linearGradient id="bgGrad" x1="0%" y1="0%" x2="100%" y2="100%">
      <stop offset="0%" style="stop-color:#0a0e14"/>
      <stop offset="100%" style="stop-color:#111820"/>
    </linearGradient>
    <linearGradient id="accentGrad" x1="0%" y1="0%" x2="100%" y2="100%">
      <stop offset="0%" style="stop-color:#00d4ff"/>
      <stop offset="100%" style="stop-color:#7c4dff"/>
    </linearGradient>
    <linearGradient id="greenGrad" x1="0%" y1="0%" x2="100%" y2="100%">
      <stop offset="0%" style="stop-color:#00e676"/>
      <stop offset="100%" style="stop-color:#00bcd4"/>
    </linearGradient>
    <linearGradient id="orangeGrad" x1="0%" y1="0%" x2="100%" y2="100%">
      <stop offset="0%" style="stop-color:#ff6d00"/>
      <stop offset="100%" style="stop-color:#ffab00"/>
    </linearGradient>
  </defs>
  
  <!-- Phone Frame -->
  <rect width="430" height="932" rx="50" fill="url(#bgGrad)"/>
  
  <!-- Status Bar -->
  <rect x="150" y="15" width="130" height="30" rx="15" fill="#1a2130"/>
  
  <!-- Header -->
  <rect x="0" y="50" width="430" height="70" fill="#111820"/>
  <text x="30" y="95" font-family="Arial, sans-serif" font-size="28">🐕</text>
  <text x="70" y="93" fill="url(#accentGrad)" font-family="Arial, sans-serif" font-size="18" font-weight="bold">FFT 狗腿子</text>
  <rect x="370" y="75" width="40" height="30" rx="6" fill="#242d3d"/>
  <text x="390" y="96" fill="#8b99ab" font-family="Arial, sans-serif" font-size="16" text-anchor="middle">☰</text>
  
  <!-- Stats Grid -->
  <g transform="translate(20, 140)">
    <!-- Card 1 -->
    <rect x="0" y="0" width="185" height="100" rx="16" fill="#1a2130" stroke="#2a3545" stroke-width="1"/>
    <rect x="0" y="0" width="185" height="3" rx="1.5" fill="url(#accentGrad)"/>
    <text x="92" y="50" fill="url(#accentGrad)" font-family="Arial, sans-serif" font-size="36" font-weight="bold" text-anchor="middle">42</text>
    <text x="92" y="80" fill="#8b99ab" font-family="Arial, sans-serif" font-size="13" text-anchor="middle">📚 总知识量</text>
    
    <!-- Card 2 -->
    <rect x="200" y="0" width="185" height="100" rx="16" fill="#1a2130" stroke="#2a3545" stroke-width="1"/>
    <rect x="200" y="0" width="185" height="3" rx="1.5" fill="url(#greenGrad)"/>
    <text x="292" y="50" fill="url(#greenGrad)" font-family="Arial, sans-serif" font-size="36" font-weight="bold" text-anchor="middle">5</text>
    <text x="292" y="80" fill="#8b99ab" font-family="Arial, sans-serif" font-size="13" text-anchor="middle">✨ 本周新增</text>
    
    <!-- Card 3 -->
    <rect x="0" y="115" width="185" height="100" rx="16" fill="#1a2130" stroke="#2a3545" stroke-width="1"/>
    <rect x="0" y="115" width="185" height="3" rx="1.5" fill="#00bcd4"/>
    <text x="92" y="165" fill="#00bcd4" font-family="Arial, sans-serif" font-size="36" font-weight="bold" text-anchor="middle">40</text>
    <text x="92" y="195" fill="#8b99ab" font-family="Arial, sans-serif" font-size="13" text-anchor="middle">🧪 已蒸馏</text>
    
    <!-- Card 4 -->
    <rect x="200" y="115" width="185" height="100" rx="16" fill="#1a2130" stroke="#2a3545" stroke-width="1"/>
    <rect x="200" y="115" width="185" height="3" rx="1.5" fill="url(#orangeGrad)"/>
    <text x="292" y="165" fill="url(#orangeGrad)" font-family="Arial, sans-serif" font-size="36" font-weight="bold" text-anchor="middle">6</text>
    <text x="292" y="195" fill="#8b99ab" font-family="Arial, sans-serif" font-size="13" text-anchor="middle">📂 分类数</text>
  </g>
  
  <!-- System Status -->
  <rect x="20" y="380" width="390" height="130" rx="16" fill="#1a2130" stroke="#2a3545" stroke-width="1"/>
  <text x="40" y="415" fill="#e6edf5" font-family="Arial, sans-serif" font-size="15" font-weight="600">系统状态</text>
  
  <rect x="40" y="435" width="350" height="30" rx="6" fill="#111820"/>
  <text x="55" y="456" fill="#8b99ab" font-family="Arial, sans-serif" font-size="13">Frontend</text>
  <rect x="300" y="442" width="70" height="20" rx="10" fill="rgba(0,230,118,0.15)"/>
  <text x="335" y="456" fill="#00e676" font-family="Arial, sans-serif" font-size="11" text-anchor="middle">Online ✓</text>
  
  <rect x="40" y="470" width="350" height="30" rx="6" fill="#111820"/>
  <text x="55" y="491" fill="#8b99ab" font-family="Arial, sans-serif" font-size="13">Backend</text>
  <rect x="300" y="477" width="70" height="20" rx="10" fill="rgba(0,230,118,0.15)"/>
  <text x="335" y="491" fill="#00e676" font-family="Arial, sans-serif" font-size="11" text-anchor="middle">Online ✓</text>
  
  <!-- Recent Knowledge -->
  <text x="20" y="545" fill="#e6edf5" font-family="Arial, sans-serif" font-size="15" font-weight="600">最近添加</text>
  
  <rect x="20" y="560" width="390" height="130" rx="16" fill="#1a2130" stroke="#2a3545" stroke-width="1"/>
  <rect x="20" y="560" width="390" height="3" rx="1.5" fill="url(#accentGrad)"/>
  <rect x="35" y="580" width="70" height="22" rx="11" fill="url(#accentGrad)"/>
  <text x="70" y="595" fill="#ffffff" font-family="Arial, sans-serif" font-size="10" text-anchor="middle">技术</text>
  <text x="120" y="595" fill="#ffab00" font-family="Arial, sans-serif" font-size="11">★★☆</text>
  <text x="35" y="625" fill="#e6edf5" font-family="Arial, sans-serif" font-size="15" font-weight="600">React Hooks 进阶指南</text>
  <text x="35" y="650" fill="#8b99ab" font-family="Arial, sans-serif" font-size="12">深入理解 useState 和 useEffect...</text>
  <text x="35" y="675" fill="#00d4ff" font-family="Arial, sans-serif" font-size="11">💡 关键点: 自定义 Hook, 性能优化</text>
  
  <!-- Quick Actions -->
  <text x="20" y="720" fill="#e6edf5" font-family="Arial, sans-serif" font-size="15" font-weight="600">快捷操作</text>
  
  <rect x="20" y="735" width="185" height="50" rx="12" fill="url(#accentGrad)"/>
  <text x="112" y="767" fill="#ffffff" font-family="Arial, sans-serif" font-size="14" font-weight="600" text-anchor="middle">➕ 添加知识</text>
  
  <rect x="215" y="735" width="185" height="50" rx="12" fill="#242d3d"/>
  <text x="307" y="767" fill="#e6edf5" font-family="Arial, sans-serif" font-size="14" text-anchor="middle">🔍 智能搜索</text>
  
  <!-- Bottom Navigation -->
  <rect x="0" y="860" width="430" height="72" fill="#111820"/>
  <g text-anchor="middle" font-family="Arial, sans-serif">
    <text x="55" y="895" fill="#00d4ff" font-size="22">📊</text>
    <text x="55" y="915" fill="#00d4ff" font-size="10">首页</text>
    
    <text x="140" y="895" fill="#5a6878" font-size="22">📚</text>
    <text x="140" y="915" fill="#5a6878" font-size="10">知识库</text>
    
    <circle cx="215" cy="875" r="28" fill="url(#accentGrad)"/>
    <text x="215" y="882" fill="#ffffff" font-size="20">➕</text>
    <text x="215" y="915" fill="#8b99ab" font-size="10">添加</text>
    
    <text x="290" y="895" fill="#5a6878" font-size="22">🔍</text>
    <text x="290" y="915" fill="#5a6878" font-size="10">搜索</text>
    
    <text x="375" y="895" fill="#5a6878" font-size="22">📊</text>
    <text x="375" y="915" fill="#5a6878" font-size="10">图谱</text>
  </g>
</svg>

